# xmcd CD database file
#
# Track frame offsets:
#	150
#	2955
#	36362
#	63748
#	90921
#	117357
#	140959
#	158230
#	185400
#	218765
#	234891
#	255618
#	283808
#	318219
#	338733
#
# Disc length: 4544 seconds
#
# Revision: 0
# Processed by: cddbd v1.4PL0 Copyright (c) Steve Scherf et al.
# Submitted via: CDex 1.50beta10
#
DISCID=d811be0f
DTITLE=Various Artist - Radio Groove - Volume 3
DYEAR=1900
DGENRE=Jazz
TTITLE0=Tokyo
TTITLE1=Gotan Project - Triptico
TTITLE2=Buscemi - Nightlife at 3:33
TTITLE3=Yukihiro Fukutomi - Speak
TTITLE4=Seven Dub - A Greater Love
TTITLE5=Athome Project Fjord - The Spy
TTITLE6=Le Peuple de L'Herb - PH Theme
TTITLE7=Boozoo Bajou - Under My Sensi
TTITLE8=Lisa Shaw - Always (Lovetronic Vocal)
TTITLE9=De - Phazz - Jazz Music
TTITLE10=Klement Julienne with Kojak - Possoz Boogie
TTITLE11=Boozoo Bajou - The Funky Low Lives
TTITLE12=Next Evidence - Blowing Drum
TTITLE13=Louise Vertigo - Blue Lagoon (Moca Nova)
TTITLE14=Venice
EXTD=
EXTT0=
EXTT1=
EXTT2=
EXTT3=
EXTT4=
EXTT5=
EXTT6=
EXTT7=
EXTT8=
EXTT9=
EXTT10=
EXTT11=
EXTT12=
EXTT13=
EXTT14=
PLAYORDER=
